<svg width="124" height="26" viewBox="0 0 124 26" fill="none" xmlns="http://www.w3.org/2000/svg">
<g clip-path="url(#clip0_47_1853)">
<path d="M22.6667 18.9789L20.7292 17.3643L25.1208 12.5206L20.7292 7.67684L22.6667 6.06226L28.4792 12.5206L22.6667 18.9789ZM7.8125 18.9789L2 12.5206L7.8125 6.06226L9.75 7.67684L5.29375 12.5206L9.75 17.3643L7.8125 18.9789Z" fill="#7F56D9"/>
<path d="M13.5625 22.208L11.1083 21.3684L17.4375 2.83301L19.8917 3.67259L13.5625 22.208Z" fill="#2196F3"/>
</g>
<path d="M45.9631 21H42.5881L48.733 3.54545H52.6364L58.7898 21H55.4148L50.7528 7.125H50.6165L45.9631 21ZM46.0739 14.1562H55.2784V16.696H46.0739V14.1562ZM60.9524 25.9091V7.90909H63.9865V10.0739H64.1655C64.3246 9.75568 64.549 9.41761 64.8388 9.05966C65.1286 8.69602 65.5206 8.38636 66.0149 8.13068C66.5092 7.86932 67.1399 7.73864 67.907 7.73864C68.9183 7.73864 69.8303 7.99716 70.6428 8.5142C71.4609 9.02557 72.1087 9.78409 72.5859 10.7898C73.0689 11.7898 73.3104 13.017 73.3104 14.4716C73.3104 15.9091 73.0746 17.1307 72.603 18.1364C72.1314 19.142 71.4893 19.9091 70.6768 20.4375C69.8643 20.9659 68.9439 21.2301 67.9155 21.2301C67.1655 21.2301 66.5433 21.1051 66.049 20.8551C65.5547 20.6051 65.157 20.304 64.8558 19.9517C64.5604 19.5937 64.3303 19.2557 64.1655 18.9375H64.0376V25.9091H60.9524ZM63.978 14.4545C63.978 15.3011 64.0973 16.0426 64.3359 16.679C64.5803 17.3153 64.9297 17.8125 65.3842 18.1705C65.8445 18.5227 66.4013 18.6989 67.0547 18.6989C67.7365 18.6989 68.3075 18.517 68.7678 18.1534C69.228 17.7841 69.5746 17.2812 69.8075 16.6449C70.0462 16.0028 70.1655 15.2727 70.1655 14.4545C70.1655 13.642 70.049 12.9205 69.8161 12.2898C69.5831 11.6591 69.2365 11.1648 68.7763 10.8068C68.3161 10.4489 67.7422 10.2699 67.0547 10.2699C66.3956 10.2699 65.8359 10.4432 65.3757 10.7898C64.9155 11.1364 64.5661 11.6222 64.3274 12.2472C64.0945 12.8722 63.978 13.608 63.978 14.4545ZM75.9524 25.9091V7.90909H78.9865V10.0739H79.1655C79.3246 9.75568 79.549 9.41761 79.8388 9.05966C80.1286 8.69602 80.5206 8.38636 81.0149 8.13068C81.5092 7.86932 82.1399 7.73864 82.907 7.73864C83.9183 7.73864 84.8303 7.99716 85.6428 8.5142C86.4609 9.02557 87.1087 9.78409 87.5859 10.7898C88.0689 11.7898 88.3104 13.017 88.3104 14.4716C88.3104 15.9091 88.0746 17.1307 87.603 18.1364C87.1314 19.142 86.4893 19.9091 85.6768 20.4375C84.8643 20.9659 83.9439 21.2301 82.9155 21.2301C82.1655 21.2301 81.5433 21.1051 81.049 20.8551C80.5547 20.6051 80.157 20.304 79.8558 19.9517C79.5604 19.5937 79.3303 19.2557 79.1655 18.9375H79.0376V25.9091H75.9524ZM78.978 14.4545C78.978 15.3011 79.0973 16.0426 79.3359 16.679C79.5803 17.3153 79.9297 17.8125 80.3842 18.1705C80.8445 18.5227 81.4013 18.6989 82.0547 18.6989C82.7365 18.6989 83.3075 18.517 83.7678 18.1534C84.228 17.7841 84.5746 17.2812 84.8075 16.6449C85.0462 16.0028 85.1655 15.2727 85.1655 14.4545C85.1655 13.642 85.049 12.9205 84.8161 12.2898C84.5831 11.6591 84.2365 11.1648 83.7763 10.8068C83.3161 10.4489 82.7422 10.2699 82.0547 10.2699C81.3956 10.2699 80.8359 10.4432 80.3757 10.7898C79.9155 11.1364 79.5661 11.6222 79.3274 12.2472C79.0945 12.8722 78.978 13.608 78.978 14.4545ZM94.0376 3.54545V21H90.9524V3.54545H94.0376ZM103.006 21.2557C101.693 21.2557 100.56 20.983 99.6051 20.4375C98.6563 19.8864 97.9261 19.108 97.4148 18.1023C96.9034 17.0909 96.6477 15.9006 96.6477 14.5312C96.6477 13.1847 96.9034 12.0028 97.4148 10.9858C97.9318 9.96307 98.6534 9.16761 99.5795 8.59943C100.506 8.02557 101.594 7.73864 102.844 7.73864C103.651 7.73864 104.412 7.86932 105.128 8.13068C105.849 8.38636 106.486 8.78409 107.037 9.32386C107.594 9.86364 108.031 10.5511 108.349 11.3864C108.668 12.2159 108.827 13.2045 108.827 14.3523V15.2983H98.0966V13.2188H105.869C105.864 12.6278 105.736 12.1023 105.486 11.642C105.236 11.1761 104.886 10.8097 104.438 10.5426C103.994 10.2756 103.477 10.142 102.886 10.142C102.256 10.142 101.702 10.2955 101.224 10.6023C100.747 10.9034 100.375 11.3011 100.108 11.7955C99.8466 12.2841 99.7131 12.821 99.7074 13.4062V15.2216C99.7074 15.983 99.8466 16.6364 100.125 17.1818C100.403 17.7216 100.793 18.1364 101.293 18.4261C101.793 18.7102 102.378 18.8523 103.048 18.8523C103.497 18.8523 103.903 18.7898 104.267 18.6648C104.631 18.5341 104.946 18.3438 105.213 18.0938C105.48 17.8438 105.682 17.5341 105.818 17.1648L108.699 17.4886C108.517 18.25 108.17 18.9148 107.659 19.483C107.153 20.0455 106.506 20.483 105.716 20.7955C104.926 21.1023 104.023 21.2557 103.006 21.2557ZM117.974 7.90909V10.2955H110.448V7.90909H117.974ZM112.306 4.77273H115.391V17.0625C115.391 17.4773 115.454 17.7955 115.579 18.017C115.71 18.233 115.88 18.3807 116.09 18.4602C116.3 18.5398 116.533 18.5795 116.789 18.5795C116.982 18.5795 117.158 18.5653 117.317 18.5369C117.482 18.5085 117.607 18.483 117.692 18.4602L118.212 20.8722C118.048 20.929 117.812 20.9915 117.505 21.0597C117.204 21.1278 116.835 21.1676 116.397 21.179C115.624 21.2017 114.928 21.0852 114.309 20.8295C113.69 20.5682 113.198 20.1648 112.835 19.6193C112.477 19.0739 112.3 18.392 112.306 17.5739V4.77273Z" fill="black"/>
<defs>
<clipPath id="clip0_47_1853">
<rect width="31" height="19" fill="white" transform="translate(0 3)"/>
</clipPath>
</defs>
</svg>
